<mxfile host="app.diagrams.net" agent="Mozilla/5.0 (Windows NT 10.0; Win64; x64) AppleWebKit/537.36 (KHTML, like Gecko) Chrome/131.0.0.0 Safari/537.36 Edg/131.0.0.0" version="25.0.3">
  <diagram name="第 1 页" id="sFzaLu_hDA5px_JqVya4">
    <mxGraphModel dx="1626" dy="755" grid="1" gridSize="10" guides="1" tooltips="1" connect="1" arrows="1" fold="1" page="1" pageScale="1" pageWidth="827" pageHeight="1169" math="0" shadow="0">
      <root>
        <mxCell id="0" />
        <mxCell id="1" parent="0" />
        <mxCell id="AGUvj005nqoeKB6If34W-37" value="开始" style="whiteSpace=wrap;strokeWidth=2;" vertex="1" parent="1">
          <mxGeometry x="1212" y="710" width="94" height="49" as="geometry" />
        </mxCell>
        <mxCell id="AGUvj005nqoeKB6If34W-38" value="查找原始国家所在的语言" style="whiteSpace=wrap;strokeWidth=2;" vertex="1" parent="1">
          <mxGeometry x="1140" y="809" width="237" height="49" as="geometry" />
        </mxCell>
        <mxCell id="AGUvj005nqoeKB6If34W-39" value="ES并行查询开关是否开启?" style="rhombus;strokeWidth=2;whiteSpace=wrap;" vertex="1" parent="1">
          <mxGeometry x="1143" y="908" width="231" height="231" as="geometry" />
        </mxCell>
        <mxCell id="AGUvj005nqoeKB6If34W-40" value="并行执行查询" style="whiteSpace=wrap;strokeWidth=2;" vertex="1" parent="1">
          <mxGeometry x="659" y="3072" width="157" height="49" as="geometry" />
        </mxCell>
        <mxCell id="AGUvj005nqoeKB6If34W-41" value="条件1查询" style="whiteSpace=wrap;strokeWidth=2;" vertex="1" parent="1">
          <mxGeometry x="20" y="3688" width="133" height="49" as="geometry" />
        </mxCell>
        <mxCell id="AGUvj005nqoeKB6If34W-42" value="请求的语言是否非EN且与原始语言不同?" style="rhombus;strokeWidth=2;whiteSpace=wrap;" vertex="1" parent="1">
          <mxGeometry x="227" y="3301" width="262" height="262" as="geometry" />
        </mxCell>
        <mxCell id="AGUvj005nqoeKB6If34W-43" value="条件2查询" style="whiteSpace=wrap;strokeWidth=2;" vertex="1" parent="1">
          <mxGeometry x="203" y="3688" width="133" height="49" as="geometry" />
        </mxCell>
        <mxCell id="AGUvj005nqoeKB6If34W-44" value="返回空集合" style="whiteSpace=wrap;strokeWidth=2;" vertex="1" parent="1">
          <mxGeometry x="387" y="3688" width="142" height="49" as="geometry" />
        </mxCell>
        <mxCell id="AGUvj005nqoeKB6If34W-45" value="条件3查询" style="whiteSpace=wrap;strokeWidth=2;" vertex="1" parent="1">
          <mxGeometry x="579" y="3688" width="133" height="49" as="geometry" />
        </mxCell>
        <mxCell id="AGUvj005nqoeKB6If34W-46" value="条件4查询" style="whiteSpace=wrap;strokeWidth=2;" vertex="1" parent="1">
          <mxGeometry x="762" y="3688" width="133" height="49" as="geometry" />
        </mxCell>
        <mxCell id="AGUvj005nqoeKB6If34W-47" value="请求的语言是否非EN且与原始语言不同?" style="rhombus;strokeWidth=2;whiteSpace=wrap;" vertex="1" parent="1">
          <mxGeometry x="969" y="3301" width="262" height="262" as="geometry" />
        </mxCell>
        <mxCell id="AGUvj005nqoeKB6If34W-48" value="条件5查询" style="whiteSpace=wrap;strokeWidth=2;" vertex="1" parent="1">
          <mxGeometry x="946" y="3688" width="133" height="49" as="geometry" />
        </mxCell>
        <mxCell id="AGUvj005nqoeKB6If34W-49" value="返回空集合" style="whiteSpace=wrap;strokeWidth=2;" vertex="1" parent="1">
          <mxGeometry x="1129" y="3688" width="142" height="49" as="geometry" />
        </mxCell>
        <mxCell id="AGUvj005nqoeKB6If34W-50" value="条件6查询" style="whiteSpace=wrap;strokeWidth=2;" vertex="1" parent="1">
          <mxGeometry x="1321" y="3688" width="133" height="49" as="geometry" />
        </mxCell>
        <mxCell id="AGUvj005nqoeKB6If34W-51" value="组装结果" style="whiteSpace=wrap;strokeWidth=2;" vertex="1" parent="1">
          <mxGeometry x="669" y="3861" width="125" height="49" as="geometry" />
        </mxCell>
        <mxCell id="AGUvj005nqoeKB6If34W-52" value="返回最终结果" style="whiteSpace=wrap;strokeWidth=2;" vertex="1" parent="1">
          <mxGeometry x="1580" y="3960" width="158" height="49" as="geometry" />
        </mxCell>
        <mxCell id="AGUvj005nqoeKB6If34W-53" value="顺序执行查询" style="whiteSpace=wrap;strokeWidth=2;" vertex="1" parent="1">
          <mxGeometry x="1602" y="1212" width="157" height="49" as="geometry" />
        </mxCell>
        <mxCell id="AGUvj005nqoeKB6If34W-54" value="条件1查询" style="whiteSpace=wrap;strokeWidth=2;" vertex="1" parent="1">
          <mxGeometry x="1614" y="1311" width="133" height="49" as="geometry" />
        </mxCell>
        <mxCell id="AGUvj005nqoeKB6If34W-55" value="数量是否足够?" style="rhombus;strokeWidth=2;whiteSpace=wrap;" vertex="1" parent="1">
          <mxGeometry x="1605" y="1410" width="152" height="152" as="geometry" />
        </mxCell>
        <mxCell id="AGUvj005nqoeKB6If34W-56" value="请求的语言是否非EN且与原始语言不同?" style="rhombus;strokeWidth=2;whiteSpace=wrap;" vertex="1" parent="1">
          <mxGeometry x="1632" y="1635" width="262" height="262" as="geometry" />
        </mxCell>
        <mxCell id="AGUvj005nqoeKB6If34W-57" value="条件2查询" style="whiteSpace=wrap;strokeWidth=2;" vertex="1" parent="1">
          <mxGeometry x="1557" y="1971" width="133" height="49" as="geometry" />
        </mxCell>
        <mxCell id="AGUvj005nqoeKB6If34W-58" value="返回空集合" style="whiteSpace=wrap;strokeWidth=2;" vertex="1" parent="1">
          <mxGeometry x="1786" y="1971" width="142" height="49" as="geometry" />
        </mxCell>
        <mxCell id="AGUvj005nqoeKB6If34W-59" value="数量是否足够?" style="rhombus;strokeWidth=2;whiteSpace=wrap;" vertex="1" parent="1">
          <mxGeometry x="1688" y="2093" width="152" height="152" as="geometry" />
        </mxCell>
        <mxCell id="AGUvj005nqoeKB6If34W-60" value="条件3查询" style="whiteSpace=wrap;strokeWidth=2;" vertex="1" parent="1">
          <mxGeometry x="1752" y="2318" width="133" height="49" as="geometry" />
        </mxCell>
        <mxCell id="AGUvj005nqoeKB6If34W-61" value="数量是否足够?" style="rhombus;strokeWidth=2;whiteSpace=wrap;" vertex="1" parent="1">
          <mxGeometry x="1743" y="2417" width="152" height="152" as="geometry" />
        </mxCell>
        <mxCell id="AGUvj005nqoeKB6If34W-62" value="条件4查询" style="whiteSpace=wrap;strokeWidth=2;" vertex="1" parent="1">
          <mxGeometry x="1808" y="2642" width="133" height="49" as="geometry" />
        </mxCell>
        <mxCell id="AGUvj005nqoeKB6If34W-63" value="数量是否足够?" style="rhombus;strokeWidth=2;whiteSpace=wrap;" vertex="1" parent="1">
          <mxGeometry x="1799" y="2741" width="152" height="152" as="geometry" />
        </mxCell>
        <mxCell id="AGUvj005nqoeKB6If34W-64" value="请求的语言是否非EN且与原始语言不同?" style="rhombus;strokeWidth=2;whiteSpace=wrap;" vertex="1" parent="1">
          <mxGeometry x="1827" y="2966" width="262" height="262" as="geometry" />
        </mxCell>
        <mxCell id="AGUvj005nqoeKB6If34W-65" value="条件5查询" style="whiteSpace=wrap;strokeWidth=2;" vertex="1" parent="1">
          <mxGeometry x="1797" y="3408" width="133" height="49" as="geometry" />
        </mxCell>
        <mxCell id="AGUvj005nqoeKB6If34W-66" value="返回空集合" style="whiteSpace=wrap;strokeWidth=2;" vertex="1" parent="1">
          <mxGeometry x="1981" y="3408" width="142" height="49" as="geometry" />
        </mxCell>
        <mxCell id="AGUvj005nqoeKB6If34W-67" value="数量是否足够?" style="rhombus;strokeWidth=2;whiteSpace=wrap;" vertex="1" parent="1">
          <mxGeometry x="1882" y="3636" width="152" height="152" as="geometry" />
        </mxCell>
        <mxCell id="AGUvj005nqoeKB6If34W-68" value="条件6查询" style="whiteSpace=wrap;strokeWidth=2;" vertex="1" parent="1">
          <mxGeometry x="1947" y="3861" width="133" height="49" as="geometry" />
        </mxCell>
        <mxCell id="AGUvj005nqoeKB6If34W-69" value="" style="curved=1;startArrow=none;endArrow=block;exitX=0.5;exitY=1;entryX=0.5;entryY=0;rounded=0;" edge="1" parent="1" source="AGUvj005nqoeKB6If34W-37" target="AGUvj005nqoeKB6If34W-38">
          <mxGeometry relative="1" as="geometry">
            <Array as="points" />
          </mxGeometry>
        </mxCell>
        <mxCell id="AGUvj005nqoeKB6If34W-70" value="" style="curved=1;startArrow=none;endArrow=block;exitX=0.5;exitY=1;entryX=0.5;entryY=0;rounded=0;" edge="1" parent="1" source="AGUvj005nqoeKB6If34W-38" target="AGUvj005nqoeKB6If34W-39">
          <mxGeometry relative="1" as="geometry">
            <Array as="points" />
          </mxGeometry>
        </mxCell>
        <mxCell id="AGUvj005nqoeKB6If34W-71" value="开启" style="curved=1;startArrow=none;endArrow=block;exitX=0;exitY=0.65;entryX=0.5;entryY=0.01;rounded=0;" edge="1" parent="1" source="AGUvj005nqoeKB6If34W-39" target="AGUvj005nqoeKB6If34W-40">
          <mxGeometry relative="1" as="geometry">
            <Array as="points">
              <mxPoint x="737" y="1176" />
            </Array>
          </mxGeometry>
        </mxCell>
        <mxCell id="AGUvj005nqoeKB6If34W-72" value="" style="curved=1;startArrow=none;endArrow=block;exitX=0;exitY=0.92;entryX=0.5;entryY=0;rounded=0;" edge="1" parent="1" source="AGUvj005nqoeKB6If34W-40" target="AGUvj005nqoeKB6If34W-41">
          <mxGeometry relative="1" as="geometry">
            <Array as="points">
              <mxPoint x="87" y="3265" />
            </Array>
          </mxGeometry>
        </mxCell>
        <mxCell id="AGUvj005nqoeKB6If34W-73" value="" style="curved=1;startArrow=none;endArrow=block;exitX=0.15;exitY=1.01;entryX=0.5;entryY=0;rounded=0;" edge="1" parent="1" source="AGUvj005nqoeKB6If34W-40" target="AGUvj005nqoeKB6If34W-42">
          <mxGeometry relative="1" as="geometry">
            <Array as="points">
              <mxPoint x="358" y="3265" />
            </Array>
          </mxGeometry>
        </mxCell>
        <mxCell id="AGUvj005nqoeKB6If34W-74" value="是" style="curved=1;startArrow=none;endArrow=block;exitX=0.24;exitY=1;entryX=0.5;entryY=0;rounded=0;" edge="1" parent="1" source="AGUvj005nqoeKB6If34W-42" target="AGUvj005nqoeKB6If34W-43">
          <mxGeometry relative="1" as="geometry">
            <Array as="points">
              <mxPoint x="270" y="3600" />
            </Array>
          </mxGeometry>
        </mxCell>
        <mxCell id="AGUvj005nqoeKB6If34W-75" value="否" style="curved=1;startArrow=none;endArrow=block;exitX=0.8;exitY=1;entryX=0.5;entryY=0;rounded=0;" edge="1" parent="1" source="AGUvj005nqoeKB6If34W-42" target="AGUvj005nqoeKB6If34W-44">
          <mxGeometry relative="1" as="geometry">
            <Array as="points">
              <mxPoint x="458" y="3600" />
            </Array>
          </mxGeometry>
        </mxCell>
        <mxCell id="AGUvj005nqoeKB6If34W-76" value="" style="curved=1;startArrow=none;endArrow=block;exitX=0.41;exitY=1.01;entryX=0.5;entryY=0;rounded=0;" edge="1" parent="1" source="AGUvj005nqoeKB6If34W-40" target="AGUvj005nqoeKB6If34W-45">
          <mxGeometry relative="1" as="geometry">
            <Array as="points">
              <mxPoint x="645" y="3265" />
            </Array>
          </mxGeometry>
        </mxCell>
        <mxCell id="AGUvj005nqoeKB6If34W-77" value="" style="curved=1;startArrow=none;endArrow=block;exitX=0.58;exitY=1.01;entryX=0.5;entryY=0;rounded=0;" edge="1" parent="1" source="AGUvj005nqoeKB6If34W-40" target="AGUvj005nqoeKB6If34W-46">
          <mxGeometry relative="1" as="geometry">
            <Array as="points">
              <mxPoint x="829" y="3265" />
            </Array>
          </mxGeometry>
        </mxCell>
        <mxCell id="AGUvj005nqoeKB6If34W-78" value="" style="curved=1;startArrow=none;endArrow=block;exitX=0.84;exitY=1.01;entryX=0.5;entryY=0;rounded=0;" edge="1" parent="1" source="AGUvj005nqoeKB6If34W-40" target="AGUvj005nqoeKB6If34W-47">
          <mxGeometry relative="1" as="geometry">
            <Array as="points">
              <mxPoint x="1100" y="3265" />
            </Array>
          </mxGeometry>
        </mxCell>
        <mxCell id="AGUvj005nqoeKB6If34W-79" value="是" style="curved=1;startArrow=none;endArrow=block;exitX=0.24;exitY=1;entryX=0.5;entryY=0;rounded=0;" edge="1" parent="1" source="AGUvj005nqoeKB6If34W-47" target="AGUvj005nqoeKB6If34W-48">
          <mxGeometry relative="1" as="geometry">
            <Array as="points">
              <mxPoint x="1012" y="3600" />
            </Array>
          </mxGeometry>
        </mxCell>
        <mxCell id="AGUvj005nqoeKB6If34W-80" value="否" style="curved=1;startArrow=none;endArrow=block;exitX=0.8;exitY=1;entryX=0.5;entryY=0;rounded=0;" edge="1" parent="1" source="AGUvj005nqoeKB6If34W-47" target="AGUvj005nqoeKB6If34W-49">
          <mxGeometry relative="1" as="geometry">
            <Array as="points">
              <mxPoint x="1200" y="3600" />
            </Array>
          </mxGeometry>
        </mxCell>
        <mxCell id="AGUvj005nqoeKB6If34W-81" value="" style="curved=1;startArrow=none;endArrow=block;exitX=1;exitY=0.92;entryX=0.5;entryY=0;rounded=0;" edge="1" parent="1" source="AGUvj005nqoeKB6If34W-40" target="AGUvj005nqoeKB6If34W-50">
          <mxGeometry relative="1" as="geometry">
            <Array as="points">
              <mxPoint x="1388" y="3265" />
            </Array>
          </mxGeometry>
        </mxCell>
        <mxCell id="AGUvj005nqoeKB6If34W-82" value="" style="curved=1;startArrow=none;endArrow=block;exitX=0.5;exitY=1;entryX=0;entryY=0.39;rounded=0;" edge="1" parent="1" source="AGUvj005nqoeKB6If34W-41" target="AGUvj005nqoeKB6If34W-51">
          <mxGeometry relative="1" as="geometry">
            <Array as="points">
              <mxPoint x="87" y="3825" />
            </Array>
          </mxGeometry>
        </mxCell>
        <mxCell id="AGUvj005nqoeKB6If34W-83" value="" style="curved=1;startArrow=none;endArrow=block;exitX=0.5;exitY=1;entryX=0;entryY=0.34;rounded=0;" edge="1" parent="1" source="AGUvj005nqoeKB6If34W-43" target="AGUvj005nqoeKB6If34W-51">
          <mxGeometry relative="1" as="geometry">
            <Array as="points">
              <mxPoint x="270" y="3825" />
            </Array>
          </mxGeometry>
        </mxCell>
        <mxCell id="AGUvj005nqoeKB6If34W-84" value="" style="curved=1;startArrow=none;endArrow=block;exitX=0.5;exitY=1;entryX=0;entryY=0.22;rounded=0;" edge="1" parent="1" source="AGUvj005nqoeKB6If34W-44" target="AGUvj005nqoeKB6If34W-51">
          <mxGeometry relative="1" as="geometry">
            <Array as="points">
              <mxPoint x="458" y="3825" />
            </Array>
          </mxGeometry>
        </mxCell>
        <mxCell id="AGUvj005nqoeKB6If34W-85" value="" style="curved=1;startArrow=none;endArrow=block;exitX=0.5;exitY=1;entryX=0.22;entryY=0.01;rounded=0;" edge="1" parent="1" source="AGUvj005nqoeKB6If34W-45" target="AGUvj005nqoeKB6If34W-51">
          <mxGeometry relative="1" as="geometry">
            <Array as="points">
              <mxPoint x="645" y="3825" />
            </Array>
          </mxGeometry>
        </mxCell>
        <mxCell id="AGUvj005nqoeKB6If34W-86" value="" style="curved=1;startArrow=none;endArrow=block;exitX=0.5;exitY=1;entryX=0.81;entryY=0.01;rounded=0;" edge="1" parent="1" source="AGUvj005nqoeKB6If34W-46" target="AGUvj005nqoeKB6If34W-51">
          <mxGeometry relative="1" as="geometry">
            <Array as="points">
              <mxPoint x="829" y="3825" />
            </Array>
          </mxGeometry>
        </mxCell>
        <mxCell id="AGUvj005nqoeKB6If34W-87" value="" style="curved=1;startArrow=none;endArrow=block;exitX=0.5;exitY=1;entryX=1;entryY=0.23;rounded=0;" edge="1" parent="1" source="AGUvj005nqoeKB6If34W-48" target="AGUvj005nqoeKB6If34W-51">
          <mxGeometry relative="1" as="geometry">
            <Array as="points">
              <mxPoint x="1012" y="3825" />
            </Array>
          </mxGeometry>
        </mxCell>
        <mxCell id="AGUvj005nqoeKB6If34W-88" value="" style="curved=1;startArrow=none;endArrow=block;exitX=0.5;exitY=1;entryX=1;entryY=0.34;rounded=0;" edge="1" parent="1" source="AGUvj005nqoeKB6If34W-49" target="AGUvj005nqoeKB6If34W-51">
          <mxGeometry relative="1" as="geometry">
            <Array as="points">
              <mxPoint x="1200" y="3825" />
            </Array>
          </mxGeometry>
        </mxCell>
        <mxCell id="AGUvj005nqoeKB6If34W-89" value="" style="curved=1;startArrow=none;endArrow=block;exitX=0.5;exitY=1;entryX=1;entryY=0.39;rounded=0;" edge="1" parent="1" source="AGUvj005nqoeKB6If34W-50" target="AGUvj005nqoeKB6If34W-51">
          <mxGeometry relative="1" as="geometry">
            <Array as="points">
              <mxPoint x="1388" y="3825" />
            </Array>
          </mxGeometry>
        </mxCell>
        <mxCell id="AGUvj005nqoeKB6If34W-90" value="" style="curved=1;startArrow=none;endArrow=block;exitX=0.5;exitY=1.01;entryX=0;entryY=0.42;rounded=0;" edge="1" parent="1" source="AGUvj005nqoeKB6If34W-51" target="AGUvj005nqoeKB6If34W-52">
          <mxGeometry relative="1" as="geometry">
            <Array as="points">
              <mxPoint x="731" y="3935" />
            </Array>
          </mxGeometry>
        </mxCell>
        <mxCell id="AGUvj005nqoeKB6If34W-91" value="关闭" style="curved=1;startArrow=none;endArrow=block;exitX=1;exitY=0.68;entryX=0.5;entryY=0.01;rounded=0;" edge="1" parent="1" source="AGUvj005nqoeKB6If34W-39" target="AGUvj005nqoeKB6If34W-53">
          <mxGeometry relative="1" as="geometry">
            <Array as="points">
              <mxPoint x="1681" y="1176" />
            </Array>
          </mxGeometry>
        </mxCell>
        <mxCell id="AGUvj005nqoeKB6If34W-92" value="" style="curved=1;startArrow=none;endArrow=block;exitX=0.5;exitY=1.01;entryX=0.5;entryY=0.01;rounded=0;" edge="1" parent="1" source="AGUvj005nqoeKB6If34W-53" target="AGUvj005nqoeKB6If34W-54">
          <mxGeometry relative="1" as="geometry">
            <Array as="points" />
          </mxGeometry>
        </mxCell>
        <mxCell id="AGUvj005nqoeKB6If34W-93" value="" style="curved=1;startArrow=none;endArrow=block;exitX=0.5;exitY=1.01;entryX=0.5;entryY=0;rounded=0;" edge="1" parent="1" source="AGUvj005nqoeKB6If34W-54" target="AGUvj005nqoeKB6If34W-55">
          <mxGeometry relative="1" as="geometry">
            <Array as="points" />
          </mxGeometry>
        </mxCell>
        <mxCell id="AGUvj005nqoeKB6If34W-94" value="是" style="curved=1;startArrow=none;endArrow=block;exitX=0;exitY=0.8;entryX=0;entryY=0.04;rounded=0;" edge="1" parent="1" source="AGUvj005nqoeKB6If34W-55" target="AGUvj005nqoeKB6If34W-52">
          <mxGeometry relative="1" as="geometry">
            <Array as="points">
              <mxPoint x="1489" y="1599" />
              <mxPoint x="1489" y="3935" />
            </Array>
          </mxGeometry>
        </mxCell>
        <mxCell id="AGUvj005nqoeKB6If34W-95" value="否" style="curved=1;startArrow=none;endArrow=block;exitX=0.87;exitY=1;entryX=0.5;entryY=0;rounded=0;" edge="1" parent="1" source="AGUvj005nqoeKB6If34W-55" target="AGUvj005nqoeKB6If34W-56">
          <mxGeometry relative="1" as="geometry">
            <Array as="points">
              <mxPoint x="1764" y="1599" />
            </Array>
          </mxGeometry>
        </mxCell>
        <mxCell id="AGUvj005nqoeKB6If34W-96" value="是" style="curved=1;startArrow=none;endArrow=block;exitX=0.08;exitY=1;entryX=0.5;entryY=-0.01;rounded=0;" edge="1" parent="1" source="AGUvj005nqoeKB6If34W-56" target="AGUvj005nqoeKB6If34W-57">
          <mxGeometry relative="1" as="geometry">
            <Array as="points">
              <mxPoint x="1623" y="1934" />
            </Array>
          </mxGeometry>
        </mxCell>
        <mxCell id="AGUvj005nqoeKB6If34W-97" value="否" style="curved=1;startArrow=none;endArrow=block;exitX=0.78;exitY=1;entryX=0.5;entryY=-0.01;rounded=0;" edge="1" parent="1" source="AGUvj005nqoeKB6If34W-56" target="AGUvj005nqoeKB6If34W-58">
          <mxGeometry relative="1" as="geometry">
            <Array as="points">
              <mxPoint x="1857" y="1934" />
            </Array>
          </mxGeometry>
        </mxCell>
        <mxCell id="AGUvj005nqoeKB6If34W-98" value="" style="curved=1;startArrow=none;endArrow=block;exitX=0.5;exitY=0.99;entryX=0;entryY=0.1;rounded=0;" edge="1" parent="1" source="AGUvj005nqoeKB6If34W-57" target="AGUvj005nqoeKB6If34W-59">
          <mxGeometry relative="1" as="geometry">
            <Array as="points">
              <mxPoint x="1623" y="2056" />
            </Array>
          </mxGeometry>
        </mxCell>
        <mxCell id="AGUvj005nqoeKB6If34W-99" value="" style="curved=1;startArrow=none;endArrow=block;exitX=0.5;exitY=0.99;entryX=0.91;entryY=0;rounded=0;" edge="1" parent="1" source="AGUvj005nqoeKB6If34W-58" target="AGUvj005nqoeKB6If34W-59">
          <mxGeometry relative="1" as="geometry">
            <Array as="points">
              <mxPoint x="1857" y="2056" />
            </Array>
          </mxGeometry>
        </mxCell>
        <mxCell id="AGUvj005nqoeKB6If34W-100" value="是" style="curved=1;startArrow=none;endArrow=block;exitX=0;exitY=0.82;entryX=0.28;entryY=0.01;rounded=0;" edge="1" parent="1" source="AGUvj005nqoeKB6If34W-59" target="AGUvj005nqoeKB6If34W-52">
          <mxGeometry relative="1" as="geometry">
            <Array as="points">
              <mxPoint x="1588" y="2281" />
              <mxPoint x="1588" y="3935" />
            </Array>
          </mxGeometry>
        </mxCell>
        <mxCell id="AGUvj005nqoeKB6If34W-101" value="否" style="curved=1;startArrow=none;endArrow=block;exitX=0.74;exitY=1;entryX=0.5;entryY=-0.01;rounded=0;" edge="1" parent="1" source="AGUvj005nqoeKB6If34W-59" target="AGUvj005nqoeKB6If34W-60">
          <mxGeometry relative="1" as="geometry">
            <Array as="points">
              <mxPoint x="1819" y="2281" />
            </Array>
          </mxGeometry>
        </mxCell>
        <mxCell id="AGUvj005nqoeKB6If34W-102" value="" style="curved=1;startArrow=none;endArrow=block;exitX=0.5;exitY=0.99;entryX=0.5;entryY=0;rounded=0;" edge="1" parent="1" source="AGUvj005nqoeKB6If34W-60" target="AGUvj005nqoeKB6If34W-61">
          <mxGeometry relative="1" as="geometry">
            <Array as="points" />
          </mxGeometry>
        </mxCell>
        <mxCell id="AGUvj005nqoeKB6If34W-103" value="是" style="curved=1;startArrow=none;endArrow=block;exitX=0;exitY=0.85;entryX=0.5;entryY=0.01;rounded=0;" edge="1" parent="1" source="AGUvj005nqoeKB6If34W-61" target="AGUvj005nqoeKB6If34W-52">
          <mxGeometry relative="1" as="geometry">
            <Array as="points">
              <mxPoint x="1659" y="2605" />
            </Array>
          </mxGeometry>
        </mxCell>
        <mxCell id="AGUvj005nqoeKB6If34W-104" value="否" style="curved=1;startArrow=none;endArrow=block;exitX=0.75;exitY=1;entryX=0.5;entryY=-0.01;rounded=0;" edge="1" parent="1" source="AGUvj005nqoeKB6If34W-61" target="AGUvj005nqoeKB6If34W-62">
          <mxGeometry relative="1" as="geometry">
            <Array as="points">
              <mxPoint x="1875" y="2605" />
            </Array>
          </mxGeometry>
        </mxCell>
        <mxCell id="AGUvj005nqoeKB6If34W-105" value="" style="curved=1;startArrow=none;endArrow=block;exitX=0.5;exitY=0.99;entryX=0.5;entryY=0;rounded=0;" edge="1" parent="1" source="AGUvj005nqoeKB6If34W-62" target="AGUvj005nqoeKB6If34W-63">
          <mxGeometry relative="1" as="geometry">
            <Array as="points" />
          </mxGeometry>
        </mxCell>
        <mxCell id="AGUvj005nqoeKB6If34W-106" value="是" style="curved=1;startArrow=none;endArrow=block;exitX=0;exitY=0.89;entryX=0.72;entryY=0.01;rounded=0;" edge="1" parent="1" source="AGUvj005nqoeKB6If34W-63" target="AGUvj005nqoeKB6If34W-52">
          <mxGeometry relative="1" as="geometry">
            <Array as="points">
              <mxPoint x="1730" y="2929" />
              <mxPoint x="1730" y="3935" />
            </Array>
          </mxGeometry>
        </mxCell>
        <mxCell id="AGUvj005nqoeKB6If34W-107" value="否" style="curved=1;startArrow=none;endArrow=block;exitX=0.87;exitY=1;entryX=0.5;entryY=0;rounded=0;" edge="1" parent="1" source="AGUvj005nqoeKB6If34W-63" target="AGUvj005nqoeKB6If34W-64">
          <mxGeometry relative="1" as="geometry">
            <Array as="points">
              <mxPoint x="1958" y="2929" />
            </Array>
          </mxGeometry>
        </mxCell>
        <mxCell id="AGUvj005nqoeKB6If34W-108" value="是" style="curved=1;startArrow=none;endArrow=block;exitX=0.22;exitY=1;entryX=0.5;entryY=-0.01;rounded=0;" edge="1" parent="1" source="AGUvj005nqoeKB6If34W-64" target="AGUvj005nqoeKB6If34W-65">
          <mxGeometry relative="1" as="geometry">
            <Array as="points">
              <mxPoint x="1864" y="3265" />
            </Array>
          </mxGeometry>
        </mxCell>
        <mxCell id="AGUvj005nqoeKB6If34W-109" value="否" style="curved=1;startArrow=none;endArrow=block;exitX=0.78;exitY=1;entryX=0.5;entryY=-0.01;rounded=0;" edge="1" parent="1" source="AGUvj005nqoeKB6If34W-64" target="AGUvj005nqoeKB6If34W-66">
          <mxGeometry relative="1" as="geometry">
            <Array as="points">
              <mxPoint x="2052" y="3265" />
            </Array>
          </mxGeometry>
        </mxCell>
        <mxCell id="AGUvj005nqoeKB6If34W-110" value="" style="curved=1;startArrow=none;endArrow=block;exitX=0.5;exitY=0.99;entryX=0.08;entryY=0;rounded=0;" edge="1" parent="1" source="AGUvj005nqoeKB6If34W-65" target="AGUvj005nqoeKB6If34W-67">
          <mxGeometry relative="1" as="geometry">
            <Array as="points">
              <mxPoint x="1864" y="3600" />
            </Array>
          </mxGeometry>
        </mxCell>
        <mxCell id="AGUvj005nqoeKB6If34W-111" value="" style="curved=1;startArrow=none;endArrow=block;exitX=0.5;exitY=0.99;entryX=0.92;entryY=0;rounded=0;" edge="1" parent="1" source="AGUvj005nqoeKB6If34W-66" target="AGUvj005nqoeKB6If34W-67">
          <mxGeometry relative="1" as="geometry">
            <Array as="points">
              <mxPoint x="2052" y="3600" />
            </Array>
          </mxGeometry>
        </mxCell>
        <mxCell id="AGUvj005nqoeKB6If34W-112" value="是" style="curved=1;startArrow=none;endArrow=block;exitX=0;exitY=0.94;entryX=1;entryY=0.04;rounded=0;" edge="1" parent="1" source="AGUvj005nqoeKB6If34W-67" target="AGUvj005nqoeKB6If34W-52">
          <mxGeometry relative="1" as="geometry">
            <Array as="points">
              <mxPoint x="1829" y="3825" />
              <mxPoint x="1829" y="3935" />
            </Array>
          </mxGeometry>
        </mxCell>
        <mxCell id="AGUvj005nqoeKB6If34W-113" value="否" style="curved=1;startArrow=none;endArrow=block;exitX=0.75;exitY=1;entryX=0.5;entryY=0.01;rounded=0;" edge="1" parent="1" source="AGUvj005nqoeKB6If34W-67" target="AGUvj005nqoeKB6If34W-68">
          <mxGeometry relative="1" as="geometry">
            <Array as="points">
              <mxPoint x="2014" y="3825" />
            </Array>
          </mxGeometry>
        </mxCell>
        <mxCell id="AGUvj005nqoeKB6If34W-114" value="" style="curved=1;startArrow=none;endArrow=block;exitX=0.5;exitY=1.01;entryX=1;entryY=0.28;rounded=0;" edge="1" parent="1" source="AGUvj005nqoeKB6If34W-68" target="AGUvj005nqoeKB6If34W-52">
          <mxGeometry relative="1" as="geometry">
            <Array as="points">
              <mxPoint x="2014" y="3935" />
            </Array>
          </mxGeometry>
        </mxCell>
      </root>
    </mxGraphModel>
  </diagram>
</mxfile>
